<?xml version="1.0" encoding="UTF-8" standalone="no"?>
<!-- Created with Inkscape (http://www.inkscape.org/) -->

<svg
   xmlns:dc="http://purl.org/dc/elements/1.1/"
   xmlns:cc="http://creativecommons.org/ns#"
   xmlns:rdf="http://www.w3.org/1999/02/22-rdf-syntax-ns#"
   xmlns:svg="http://www.w3.org/2000/svg"
   xmlns="http://www.w3.org/2000/svg"
   xmlns:sodipodi="http://sodipodi.sourceforge.net/DTD/sodipodi-0.dtd"
   xmlns:inkscape="http://www.inkscape.org/namespaces/inkscape"
   version="1.2"
   width="92.763321"
   height="60.795929"
   id="svg2"
   inkscape:version="0.48.4 r9939"
   sodipodi:docname="rl.svg">
  <sodipodi:namedview
     pagecolor="#ffffff"
     bordercolor="#666666"
     borderopacity="1"
     objecttolerance="10"
     gridtolerance="10"
     guidetolerance="10"
     inkscape:pageopacity="0"
     inkscape:pageshadow="2"
     inkscape:window-width="1280"
     inkscape:window-height="1004"
     id="namedview3033"
     showgrid="false"
     inkscape:zoom="10.979498"
     inkscape:cx="76.09924"
     inkscape:cy="35.846887"
     inkscape:window-x="1364"
     inkscape:window-y="-3"
     inkscape:window-maximized="1"
     inkscape:current-layer="svg2" />
  <defs
     id="defs3011">
    <style
       type="text/css"
       id="style3013">
    @font-face {font-family: &quot;Canter&quot;;
        src: url(&quot;http://db.onlinewebfonts.com/t/ebf4467793030536e25e70777cb9ced6.eot?#iefix&quot;) format(&quot;embedded-opentype&quot;),
        url(&quot;http://db.onlinewebfonts.com/t/ebf4467793030536e25e70777cb9ced6.woff2&quot;) format(&quot;woff2&quot;),
        url(&quot;http://db.onlinewebfonts.com/t/ebf4467793030536e25e70777cb9ced6.woff&quot;) format(&quot;woff&quot;),
        url(&quot;http://db.onlinewebfonts.com/t/ebf4467793030536e25e70777cb9ced6.ttf&quot;) format(&quot;truetype&quot;),
        url(&quot;http://db.onlinewebfonts.com/t/ebf4467793030536e25e70777cb9ced6.svg#Canter&quot;) format(&quot;svg&quot;);
    }
    </style>
  </defs>
  <metadata
     id="metadata7">
    <rdf:RDF>
      <cc:Work
         rdf:about="">
        <dc:format>image/svg+xml</dc:format>
        <dc:type
           rdf:resource="http://purl.org/dc/dcmitype/StillImage" />
        <dc:title />
      </cc:Work>
    </rdf:RDF>
  </metadata>
  <g
     transform="matrix(0.98312627,0,0,1.0079268,-294.83003,-62.606354)"
     id="g3031">
    <g
       transform="translate(-3.5714286,-24.285714)"
       style="font-size:40px;font-style:normal;font-variant:normal;font-weight:bold;font-stretch:normal;text-align:end;line-height:125%;letter-spacing:0px;word-spacing:0px;text-anchor:end;fill:#000000;fill-opacity:1;stroke:none;font-family:Canter;-inkscape-font-specification:Canter Bold"
       id="flowRoot3023">
      <path
         d="m 356.45,142.27625 0,-26.12 -2.12,0 0,28 8.24,0 0,-1.88 -6.12,0"
         id="path3067"
         inkscape:connector-curvature="0" />
      <path
         d="m 371.77438,144.15625 2.07999,0 -3.48,-22.36 -2.27999,0 -3.44,22.36 2.07999,0 0.92001,-5.84 3.24,0 0,-0.04 0.88,5.88 m -3.96001,-7.6 0.52001,-3.32 0.91999,-7.2 0.88,7.2 0.48,3.32 -2.8,0"
         id="path3069"
         inkscape:connector-curvature="0" />
      <path
         d="m 385.38437,138.95625 c 0,-1.2 -0.56,-2.44 -1.91999,-2.92 1.43999,-0.72 1.91999,-2.24 1.91999,-3.4 l 0.04,-6.28 c 0,-3.16 -1.96,-4.56 -4.56,-4.56 l -4.12,0 0,22.36 5.24,0 c 1.64,0 3.4,-1.04 3.4,-3.6 l 0,-1.6 m -4.52,-15.24 c 1.56,0 2.52,0.84 2.52,2.64 l 0,6.24 c 0,1.8 -1.4,2.84 -2.44,2.84 l -2.08,0 0,-11.72 2,0 m 2.52,16.84 c 0,0.52 -0.2,1.68 -1.4,1.68 l -3.12,0 0,-5.12 2.68,0 c 1,0 1.84,0.8 1.84,1.84 l 0,1.6"
         id="path3071"
         inkscape:connector-curvature="0" />
      <path
         d="m 393.21,144.39625 c 3.04,0 4.48,-2.2 4.48,-4.8 l 0,-1.8 c 0.04,-2.12 -2,-3.24 -3.92,-4.36 -1.8,-1.08 -2.88,-1.84 -2.96,-3 l 0,-4.08 c 0,-1.92 0.92,-2.8 2.16,-2.8 1.52,0 2.12,1.24 2.12,2.76 l 0,3.04 2,0 0,-3.08 c 0,-2.68 -1.48,-4.64 -4.12,-4.64 -2.92,0 -4.32,2.04 -4.32,4.72 l 0,4.16 c 0.04,2.2 1.96,3.36 4.48,4.84 1.48,0.88 2.52,1.48 2.52,2.56 l 0,1.68 c 0,1.64 -0.8,2.92 -2.44,2.92 -1.68,0 -2.52,-1.4 -2.44,-2.96 l 0,-2.32 -2.12,0 0,2.32 c -0.04,2.92 1.92,4.84 4.56,4.84"
         id="path3073"
         inkscape:connector-curvature="0" />
    </g>
  </g>
  <g
     transform="matrix(0.98312627,0,0,1.0079268,-294.83003,-62.606354)"
     style="font-size:40px;font-style:normal;font-variant:normal;font-weight:bold;font-stretch:normal;text-align:end;line-height:125%;letter-spacing:0px;word-spacing:0px;text-anchor:end;fill:#000000;fill-opacity:1;stroke:none;font-family:Canter;-inkscape-font-specification:Canter Bold"
     id="flowRoot3009">
    <path
       d="m 323.095,84.955 c 0,-1.559998 -0.76,-3.040001 -2.44,-3.68 1.48,-0.959999 2.28,-2.840002 2.28,-4.4 l 0,-9.32 c 0.08,-4.079996 -2.36,-5.64 -5.4,-5.68 l -5.08,0 0,28 2.12,0 0,-7.32 3.96,0 c 1.56,0 2.48,0.960001 2.48,2.4 l 0,4.92 2.08,0 0,-4.92 m -8.52,-21.2 2.96,0 c 2.24,0 3.36,1.480002 3.36,3.8 l 0,9.32 c 0,2.479998 -1.92,3.8 -3.36,3.8 l -2.96,0 0,-16.92"
       id="path3085"
       inkscape:connector-curvature="0" />
    <path
       d="m 330.94625,90.115 c 2.96,0 4.44,-2.360002 4.44,-4.84 l 0,-13.2 c 0,-2.559997 -1.68,-4.76 -4.44,-4.76 -3,0 -4.56,2.280002 -4.56,4.76 l 0,13.24 c 0,2.639997 1.72,4.8 4.56,4.8 m 0,-20.92 c 1.68,0 2.36,1.440001 2.36,2.88 l 0,13.2 c 0,1.599998 -0.72,2.88 -2.36,2.88 -1.64,0 -2.44,-1.320002 -2.44,-2.84 l 0,-13.24 c 0,-1.599998 0.8,-2.88 2.44,-2.88"
       id="path3087"
       inkscape:connector-curvature="0" />
    <path
       d="m 347.57187,84.675 c 0,-1.199999 -0.56,-2.44 -1.91999,-2.92 1.43999,-0.719999 1.91999,-2.240001 1.91999,-3.4 l 0.04,-6.28 c 0,-3.159997 -1.96,-4.56 -4.56,-4.56 l -4.12,0 0,22.36 5.24,0 c 1.64,0 3.4,-1.040003 3.4,-3.6 l 0,-1.6 m -4.52,-15.24 c 1.56,0 2.52,0.840002 2.52,2.64 l 0,6.24 c 0,1.799998 -1.4,2.84 -2.44,2.84 l -2.08,0 0,-11.72 2,0 m 2.52,16.84 c 0,0.519999 -0.2,1.68 -1.4,1.68 l -3.12,0 0,-5.12 2.68,0 c 1,0 1.84,0.800001 1.84,1.84 l 0,1.6"
       id="path3089"
       inkscape:connector-curvature="0" />
    <path
       d="m 355.3975,90.115 c 3.04,0 4.48,-2.200003 4.48,-4.8 l 0,-1.8 c 0.04,-2.119998 -2,-3.240001 -3.92,-4.36 -1.8,-1.079999 -2.88,-1.840001 -2.96,-3 l 0,-4.08 c 0,-1.919998 0.92,-2.8 2.16,-2.8 1.52,0 2.12,1.240002 2.12,2.76 l 0,3.04 2,0 0,-3.08 c 0,-2.679997 -1.48,-4.64 -4.12,-4.64 -2.92,0 -4.32,2.040003 -4.32,4.72 l 0,4.16 c 0.04,2.199998 1.96,3.360001 4.48,4.84 1.48,0.879999 2.52,1.480001 2.52,2.56 l 0,1.68 c 0,1.639998 -0.8,2.92 -2.44,2.92 -1.68,0 -2.52,-1.400002 -2.44,-2.96 l 0,-2.32 -2.12,0 0,2.32 c -0.04,2.919997 1.92,4.84 4.56,4.84"
       id="path3091"
       inkscape:connector-curvature="0" />
    <path
       d="m 370.18875,67.515 -8.12,0 0,1.84 3.08,0 0,20.52 2,0 0,-20.52 3.04,0 0,-1.84"
       id="path3093"
       inkscape:connector-curvature="0" />
    <path
       d="m 380.91812,69.355 0,-1.84 -8.08,0 0,22.36 8.08,0 0,-1.92 -5.96,0 0,-3.92 4.76,0 0,-1.88 -4.76,0 0,-12.8 5.96,0"
       id="path3095"
       inkscape:connector-curvature="0" />
    <path
       d="m 392.65375,85.795 c 0,-1.239999 -0.52,-2.280001 -1.68,-2.88 1.2,-0.799999 1.52,-2.160001 1.52,-3.44 l 0,-7.32 c 0,-3.399997 -2.36,-4.64 -4.44,-4.64 l -4.24,0 0,22.36 2.16,0 0,-5.72 2.88,0 c 1.08,0 1.68,0.680001 1.68,1.64 l 0,4.08 2.12,0 0,-4.08 m -6.68,-16.4 2.08,0 c 1.44,0 2.4,1.040002 2.4,2.76 l 0,7.32 c 0,1.799998 -1.36,2.8 -2.4,2.8 l -2.08,0 0,-12.88"
       id="path3097"
       inkscape:connector-curvature="0" />
  </g>
  <g
     style="stroke-width:12.28204632;stroke-miterlimit:4;stroke-dasharray:none"
     id="g5332"
     transform="matrix(-0.11320186,0.11605751,0.11320186,0.11605751,14.903513,-30.545723)">
    <path
       inkscape:connector-curvature="0"
       style="fill:none;stroke:#000000;stroke-width:12.28204632;stroke-linecap:round;stroke-linejoin:round;stroke-miterlimit:4;stroke-opacity:1;stroke-dasharray:none"
       id="path5312"
       d="m 209.95389,364.49565 c -42.8044,12.83804 -90.35278,29.43236 -98.99495,44.44672 18.62457,16.17068 301.06443,-31.79939 340.57924,-80.35449 -24.03406,-9.64109 -65.94261,-1.4693 -102.15101,2.87421" />
    <path
       inkscape:connector-curvature="0"
       style="fill:#000000;fill-opacity:0;stroke:#000000;stroke-width:12.28204632;stroke-linecap:round;stroke-linejoin:round;stroke-miterlimit:4;stroke-opacity:1;stroke-dasharray:none"
       id="path3042"
       d="m 357.14287,364.50504 a 73.571426,73.571426 0 1 1 -147.14285,0 73.571426,73.571426 0 1 1 147.14285,0 z" />
    <path
       inkscape:connector-curvature="0"
       style="fill:#000000;fill-opacity:1;stroke:#000000;stroke-width:72.62665558;stroke-linecap:round;stroke-linejoin:round;stroke-miterlimit:4;stroke-opacity:1;stroke-dasharray:none"
       id="path3042-1"
       transform="matrix(0.1691121,0,0,0.1691121,344.21286,300.21488)"
       d="m 357.14287,364.50504 a 73.571426,73.571426 0 1 1 -147.14285,0 73.571426,73.571426 0 1 1 147.14285,0 z" />
  </g>
</svg>
